<svg id="Layer_1" data-name="Layer 1" xmlns="http://www.w3.org/2000/svg" viewBox="0 0 500 500"><title>Artboard 2</title><path d="M443.41,328.507c0,14.866-2.653,31.706-7.933,43.771s-12.6,23.855-21.926,33.12-23.7,19.5-36.636,26.17-31.007,11.031-42.8,14.226c-15.611,4.231-31.143,5.241-48.809,7.3s-37.371,1.944-59.08,1.944H85.808c-9.193,0-21.866-6.369-27.038-10.838-5.641-4.878-8.725-17.071-8.725-26.558V68.354c0-9.475,4.776-22.111,10.6-26.814,6.18-4.994,18.565-6.978,27.746-6.978L218.3,35.687a454.749,454.749,0,0,1,84.126,7.59c22.97,4.317,41.224,10.828,56.958,19.556s25.6,18.641,33.952,32,12.529,29.089,12.529,47.187c0,10.128-.231,18.888-1.779,28.6a78.325,78.325,0,0,1-7.719,24.086c-3.49,6.622-8.832,15.021-12.362,18.943a120.851,120.851,0,0,1-12.892,11.878c9.565,4.189,12.447,6.216,20.03,11.918,7.486,5.63,10.375,9.283,19.617,18.275a107.644,107.644,0,0,1,23.22,32.077A97.175,97.175,0,0,1,443.41,328.507Z"/><path d="M409.886,323.833q0,21.5-7.134,38.946a99.9,99.9,0,0,1-19.718,30.847A121.418,121.418,0,0,1,353,416.688a181.92,181.92,0,0,1-37.407,15.884,278.56,278.56,0,0,1-44.864,9.2,434.786,434.786,0,0,1-53.131,2.959H91.315c-8.267,0-19.664-3.971-24.315-8.28-5.073-4.7-7.847-16.458-7.847-25.6V74.1c0-9.134,4.3-21.318,9.53-25.851,5.558-4.815,16.7-6.728,24.952-6.728H210.463q44.681,0,75.655,6.233T338.31,66.61q21.209,12.623,32.475,31.938t11.267,45.493c0,9.765-.437,22-2.352,30.948-1.8,8.427-4.5,17.18-7.695,23.141-4.5,8.386-7.378,12.155-10.9,16.053-6.049,6.692-4.826,6.14-11.267,11.452,8.6,4.039,13.661,9.01,16.933,11.531,4.622,3.56,9.608,9.285,16.664,17.538,9.59,11.217,13.933,21.037,18.94,32.05S409.886,310.12,409.886,323.833Z" fill="#f3edd4"/><path d="M312.646,278.484a67.039,67.039,0,0,1-3.992,23.714,61.675,61.675,0,0,1-11.03,18.783,68.986,68.986,0,0,1-16.81,14.039,102.587,102.587,0,0,1-21.537,9.675,144.488,144.488,0,0,1-25.109,5.6,222.945,222.945,0,0,1-29.731,1.8H132.158a18.345,18.345,0,0,1-11.661-3.7q-4.728-3.7-4.728-12.048V122.342q0-8.344,4.728-12.047a18.345,18.345,0,0,1,11.661-3.7h68.287q25,0,42.339,3.794t29.2,11.478a52.572,52.572,0,0,1,18.175,19.447q6.3,11.764,6.3,27.7a54.71,54.71,0,0,1-2.521,16.79,48.219,48.219,0,0,1-7.354,14.324,51.9,51.9,0,0,1-11.872,11.383,62.424,62.424,0,0,1-16.073,7.969,77.311,77.311,0,0,1,21.326,6.64,59.788,59.788,0,0,1,17.02,12.237,56.129,56.129,0,0,1,11.451,17.549A58.06,58.06,0,0,1,312.646,278.484Zm-71.439-103.4a33.41,33.41,0,0,0-2.521-13.281,24.184,24.184,0,0,0-7.564-9.77,36.192,36.192,0,0,0-12.712-5.976q-7.673-2.085-20.486-2.087H169.979v63.746h30.887q11.976,0,19.12-2.561a33.512,33.512,0,0,0,11.871-7.02A28.13,28.13,0,0,0,238.9,187.7,34.676,34.676,0,0,0,241.207,175.085Zm14.078,105.106a35.612,35.612,0,0,0-3.152-15.273,29.566,29.566,0,0,0-9.245-11.288,44.542,44.542,0,0,0-15.548-7.02q-9.454-2.464-24.584-2.466H169.979v69.817H209.9a73.891,73.891,0,0,0,19.436-2.182,41.276,41.276,0,0,0,13.658-6.451,30.129,30.129,0,0,0,9.034-10.624A31.372,31.372,0,0,0,255.285,280.191Z" fill="#ad4d2b"/><path d="M204.437,354.6H132.158a20.853,20.853,0,0,1-13.2-4.231c-3.775-2.954-5.688-7.669-5.688-14.016V122.342c0-6.346,1.913-11.062,5.687-14.016a20.862,20.862,0,0,1,13.2-4.23h68.287c16.766,0,31.191,1.3,42.873,3.852,11.8,2.585,21.9,6.562,30.029,11.822a55.262,55.262,0,0,1,19.02,20.363c4.38,8.174,6.6,17.891,6.6,28.881a57.46,57.46,0,0,1-2.64,17.554,50.951,50.951,0,0,1-7.734,15.059,54.688,54.688,0,0,1-12.438,11.932,61.148,61.148,0,0,1-8.981,5.19,77.08,77.08,0,0,1,13.89,5.122,62.56,62.56,0,0,1,17.726,12.748,58.887,58.887,0,0,1,11.96,18.323,60.809,60.809,0,0,1,4.4,23.542A69.839,69.839,0,0,1,311,303.077a64.441,64.441,0,0,1-11.479,19.536A71.747,71.747,0,0,1,282.1,337.162a105.6,105.6,0,0,1-22.06,9.913A147.749,147.749,0,0,1,234.5,352.77,226.517,226.517,0,0,1,204.437,354.6ZM132.158,109.1a15.785,15.785,0,0,0-10.121,3.168c-2.536,1.985-3.768,5.282-3.768,10.078V336.348c0,4.8,1.232,8.095,3.769,10.079a15.78,15.78,0,0,0,10.12,3.168h72.279a221.587,221.587,0,0,0,29.4-1.78,142.875,142.875,0,0,0,24.676-5.5,100.584,100.584,0,0,0,21.015-9.439,66.788,66.788,0,0,0,16.207-13.531,59.474,59.474,0,0,0,10.583-18.027,64.864,64.864,0,0,0,3.832-22.836,55.856,55.856,0,0,0-4.009-21.614A53.914,53.914,0,0,0,295.2,240.1a57.564,57.564,0,0,0-16.315-11.726,75.216,75.216,0,0,0-20.639-6.423,2.5,2.5,0,0,1-.391-4.836,60.248,60.248,0,0,0,15.435-7.646,49.7,49.7,0,0,0,11.306-10.835,45.974,45.974,0,0,0,6.973-13.587,52.465,52.465,0,0,0,2.4-16.028c0-10.158-2.021-19.08-6.007-26.519a50.324,50.324,0,0,0-17.33-18.528c-7.622-4.933-17.171-8.679-28.381-11.135-11.331-2.479-25.4-3.736-41.8-3.736ZM209.9,316.461H169.979a2.5,2.5,0,0,1-2.5-2.5V244.144a2.5,2.5,0,0,1,2.5-2.5h32.777c10.245,0,18.729.857,25.214,2.547a47.215,47.215,0,0,1,16.414,7.436A32.185,32.185,0,0,1,254.4,263.858a38.253,38.253,0,0,1,3.388,16.333,33.988,33.988,0,0,1-3.533,15.654,32.758,32.758,0,0,1-9.773,11.494A43.939,43.939,0,0,1,230,314.189,76.745,76.745,0,0,1,209.9,316.461Zm-37.421-5H209.9a71.81,71.81,0,0,0,18.769-2.091,38.972,38.972,0,0,0,12.839-6.053,27.783,27.783,0,0,0,8.295-9.753,29.047,29.047,0,0,0,2.982-13.373,33.325,33.325,0,0,0-2.916-14.213,27.23,27.23,0,0,0-8.478-10.346,42.3,42.3,0,0,0-14.683-6.6c-6.073-1.583-14.132-2.385-23.952-2.385H172.479Zm28.387-101.244H169.979a2.5,2.5,0,0,1-2.5-2.5V143.971a2.5,2.5,0,0,1,2.5-2.5h27.945c8.72,0,15.833.731,21.141,2.174a38.833,38.833,0,0,1,13.583,6.409,26.763,26.763,0,0,1,8.336,10.765,36.053,36.053,0,0,1,2.723,14.266,37.321,37.321,0,0,1-2.479,13.518,30.756,30.756,0,0,1-7.656,11.353,36.157,36.157,0,0,1-12.742,7.553C215.817,209.306,209.1,210.217,200.866,210.217Zm-28.387-5h28.387c7.658,0,13.806-.813,18.276-2.415a31.194,31.194,0,0,0,11-6.484,25.785,25.785,0,0,0,6.424-9.519,32.35,32.35,0,0,0,2.142-11.714,31.094,31.094,0,0,0-2.319-12.3,21.816,21.816,0,0,0-6.794-8.776,33.882,33.882,0,0,0-11.842-5.543c-4.878-1.326-11.55-2-19.828-2H172.479Z"/><path d="M228.08,401.052q-7.829,0-15.815-.767a3,3,0,0,1,.576-5.972c40.644,3.922,78.68-7.886,104.342-32.4,20.366-19.454,30.819-45.307,29.434-72.8a3,3,0,1,1,5.992-.3c1.475,29.26-9.634,56.762-31.281,77.44C297.783,388.741,264.424,401.051,228.08,401.052Z"/><path d="M345.679,265.768a3,3,0,0,1-2.948-2.467c-1.632-9.023-4.087-13.323-9.382-16.43a3,3,0,0,1,3.037-5.175c7.924,4.65,10.628,11.573,12.249,20.537a3,3,0,0,1-2.418,3.486A3.076,3.076,0,0,1,345.679,265.768Z"/><path d="M328.085,212.621l-4.189-4.3c10.351-10.095,16.427-18.6,16.85-32.187l6,.187C346.258,191.869,339.245,201.737,328.085,212.621Z"/><path d="M343.742,154.828a3,3,0,0,1-2.992-2.815c-2-32.326-16.9-52.746-44.286-60.693a3,3,0,1,1,1.672-5.762c29.657,8.6,46.464,31.456,48.6,66.085a3,3,0,0,1-2.81,3.179C343.867,154.826,343.8,154.828,343.742,154.828Z"/></svg>